<svg width="123" height="40" viewBox="0 0 123 40" fill="none" xmlns="http://www.w3.org/2000/svg">
<g clip-path="url(#clip0_839_13738)">
<path d="M15.0926 0.00390625H16.1823C19.9657 0.0861539 23.6874 1.60774 26.3605 4.30135C25.3735 5.30888 24.366 6.27529 23.3996 7.28282C21.8986 5.92574 20.0891 4.87708 18.1152 4.50697C15.1954 3.89011 12.0494 4.44528 9.60253 6.1108C6.92948 7.85856 5.12003 10.8195 4.72935 13.986C4.29755 17.1114 5.18171 20.4013 7.21734 22.8276C9.17073 25.1923 12.1522 26.6727 15.2365 26.7755C18.1152 26.94 21.1172 26.0559 23.2145 24.0408C24.8595 22.622 25.6203 20.463 25.867 18.3657C22.4537 18.3657 19.0404 18.3863 15.6272 18.3657V14.1299H29.9999C30.7402 18.6741 29.671 23.794 26.2166 27.0428C23.9136 29.3458 20.7265 30.7029 17.4777 30.9702C14.3318 31.2786 11.083 30.6823 8.28656 29.1607C4.93497 27.3718 2.26192 24.3492 0.945958 20.792C-0.287757 17.5227 -0.308319 13.8215 0.843149 10.5316C1.89181 7.52957 3.90687 4.87708 6.49768 3.02651C8.98567 1.1965 12.0083 0.188964 15.0926 0.00390625Z" fill="#3780FF"/>
<path d="M97.5457 1.07324H101.946V30.4357C100.486 30.4357 99.0056 30.4562 97.5457 30.4151C97.5662 20.6482 97.5457 10.8607 97.5457 1.07324Z" fill="#38B137"/>
<path d="M39.7873 11.2508C42.5015 10.7367 45.4418 11.3124 47.6831 12.9368C49.7187 14.3762 51.1375 16.638 51.5693 19.1054C52.1245 21.9635 51.4254 25.0889 49.5748 27.3507C47.5803 29.8799 44.3109 31.2369 41.1238 31.0313C38.2041 30.8668 35.3665 29.4069 33.6393 27.0217C31.6859 24.3898 31.213 20.7709 32.2822 17.6866C33.3514 14.3762 36.374 11.8471 39.7873 11.2508ZM40.4042 15.1575C39.2938 15.4454 38.2657 16.0828 37.5255 16.9875C35.531 19.3727 35.6544 23.2589 37.8545 25.4796C39.1088 26.7544 41.0005 27.3507 42.7482 27.0012C44.3726 26.7133 45.7914 25.6235 46.5728 24.1842C47.9298 21.7373 47.5392 18.3652 45.4624 16.4529C44.1259 15.2192 42.1725 14.7052 40.4042 15.1575Z" fill="#FA3913"/>
<path d="M61.5829 11.2513C64.6877 10.655 68.0804 11.5186 70.4039 13.6982C74.1873 17.0909 74.5986 23.4445 71.3703 27.3513C69.417 29.8187 66.2504 31.1758 63.125 31.0319C60.1435 30.9496 57.2032 29.4692 55.4349 27.0223C53.4403 24.3287 53.0085 20.6275 54.1394 17.4816C55.2704 14.2739 58.2313 11.827 61.5829 11.2513ZM62.1997 15.1581C61.0894 15.4459 60.0613 16.0833 59.3211 16.9675C57.3471 19.3116 57.4294 23.1361 59.5472 25.3773C60.8015 26.7139 62.7549 27.3718 64.5643 27.0017C66.1682 26.6933 67.6075 25.6241 68.3889 24.1847C69.7254 21.7173 69.3347 18.3452 67.2374 16.4329C65.9009 15.1992 63.9475 14.7057 62.1997 15.1581Z" fill="#FCBD06"/>
<path d="M80.068 12.4435C82.4326 10.9631 85.5786 10.5519 88.1283 11.8267C88.9302 12.1762 89.5882 12.7725 90.2256 13.3688C90.2461 12.8137 90.2256 12.2379 90.2461 11.6622C91.6238 11.6828 93.0014 11.6622 94.3997 11.6828V29.8184C94.3791 32.5531 93.68 35.4523 91.706 37.4468C89.547 39.647 86.2366 40.3255 83.2551 39.8731C80.068 39.4002 77.2921 37.0767 76.0584 34.1364C77.2921 33.5401 78.5875 33.0672 79.8624 32.512C80.582 34.1981 82.0419 35.6374 83.872 35.9664C85.702 36.2954 87.8198 35.843 89.0124 34.3214C90.2873 32.7587 90.2873 30.6203 90.2256 28.708C89.2797 29.6333 88.19 30.4558 86.874 30.7642C84.0159 31.5661 80.8699 30.5792 78.6698 28.6463C76.4491 26.7135 75.1331 23.732 75.2565 20.7711C75.3182 17.4195 77.2099 14.1913 80.068 12.4435ZM84.3243 15.0755C83.07 15.2811 81.898 15.9802 81.0961 16.9466C79.1633 19.2495 79.1633 22.9301 81.1167 25.1919C82.227 26.5285 84.0159 27.2687 85.7431 27.0836C87.3675 26.9191 88.8685 25.891 89.6704 24.4723C91.0275 22.0665 90.8013 18.7972 88.9713 16.6999C87.8404 15.4045 86.031 14.767 84.3243 15.0755Z" fill="#3780FF"/>
<path d="M107.23 13.4923C109.698 11.1894 113.502 10.4081 116.668 11.6212C119.67 12.7521 121.583 15.6102 122.549 18.5506C118.087 20.4012 113.646 22.2312 109.184 24.0817C109.801 25.2538 110.746 26.323 112.021 26.7548C113.81 27.3922 115.949 27.166 117.45 25.9734C118.046 25.5211 118.519 24.9248 118.971 24.349C120.102 25.1098 121.233 25.8501 122.364 26.6108C120.76 29.0166 118.067 30.7027 115.167 30.97C111.96 31.3607 108.546 30.1269 106.47 27.6184C103.056 23.6705 103.385 17.0496 107.23 13.4923ZM109.431 17.2963C108.731 18.3038 108.444 19.5376 108.464 20.7507C111.446 19.517 114.427 18.2833 117.409 17.029C116.915 15.8775 115.722 15.1784 114.509 14.9934C112.556 14.6438 110.52 15.6925 109.431 17.2963Z" fill="#FA3913"/>
</g>
<defs>
<clipPath id="clip0_839_13738">
<rect width="122.549" height="40" fill="white"/>
</clipPath>
</defs>
</svg>
