<svg width="25" height="24" viewBox="0 0 25 24" fill="none" xmlns="http://www.w3.org/2000/svg">
<path fill-rule="evenodd" clip-rule="evenodd" d="M12.7499 21.6004C18.0518 21.6004 22.3499 17.3023 22.3499 12.0004C22.3499 6.69846 18.0518 2.40039 12.7499 2.40039C7.44797 2.40039 3.1499 6.69846 3.1499 12.0004C3.1499 17.3023 7.44797 21.6004 12.7499 21.6004ZM11.1984 8.75186C10.7298 8.28323 9.97 8.28323 9.50137 8.75186C9.03274 9.22049 9.03274 9.98029 9.50137 10.4489L11.0528 12.0004L9.50137 13.5519C9.03274 14.0205 9.03274 14.7803 9.50137 15.2489C9.97 15.7175 10.7298 15.7175 11.1984 15.2489L12.7499 13.6974L14.3014 15.2489C14.77 15.7175 15.5298 15.7175 15.9984 15.2489C16.4671 14.7803 16.4671 14.0205 15.9984 13.5519L14.447 12.0004L15.9984 10.4489C16.4671 9.98029 16.4671 9.22049 15.9984 8.75186C15.5298 8.28323 14.77 8.28323 14.3014 8.75186L12.7499 10.3033L11.1984 8.75186Z" fill="#EF4444"/>
</svg>
