<svg width="25" height="24" viewBox="0 0 25 24" fill="none" xmlns="http://www.w3.org/2000/svg">
<path fill-rule="evenodd" clip-rule="evenodd" d="M12.2499 21.6004C17.5518 21.6004 21.8499 17.3023 21.8499 12.0004C21.8499 6.69846 17.5518 2.40039 12.2499 2.40039C6.94797 2.40039 2.6499 6.69846 2.6499 12.0004C2.6499 17.3023 6.94797 21.6004 12.2499 21.6004ZM16.6984 10.4489C17.1671 9.98029 17.1671 9.22049 16.6984 8.75186C16.2298 8.28323 15.47 8.28323 15.0014 8.75186L11.0499 12.7033L9.49843 11.1519C9.0298 10.6832 8.27 10.6832 7.80137 11.1519C7.33275 11.6205 7.33275 12.3803 7.80137 12.8489L10.2014 15.2489C10.67 15.7175 11.4298 15.7175 11.8984 15.2489L16.6984 10.4489Z" fill="#26AFAC"/>
</svg>
