<svg width="135" height="41" viewBox="0 0 135 41" fill="none" xmlns="http://www.w3.org/2000/svg">
<g clip-path="url(#clip0_839_13722)">
<path d="M130.969 32.6394L122.823 21.6953L114.8 32.6394H111.519L121.238 19.3862L112.362 7.34668H115.643L122.817 17.1953L130.115 7.34668H133.396L124.525 19.3862L134.25 32.6394H130.969ZM86.5858 20.3582C86.0971 19.8695 85.4903 19.5044 84.8835 19.2627C86.7093 18.2907 87.9229 16.3468 87.9229 14.1558C87.9229 12.5771 87.3161 7.34668 79.7766 7.34668H69.5629V18.2907H66.1583C65.6696 18.8976 64.6977 20.2347 64.3325 20.8469H69.5629V32.6394H79.7766C85.3722 32.6394 88.7768 29.8416 88.7768 25.2234C88.7714 23.2741 88.0464 21.5718 86.5858 20.3582ZM72.3607 10.0209H79.7766C81.8441 10.0209 85.1252 10.5096 85.1252 14.0323C85.1252 16.7066 83.1812 18.2907 79.7766 18.2907H72.3607V10.0209ZM79.7766 29.9651H72.3607V20.7234H79.7766C82.5744 20.7234 85.979 21.4537 85.979 25.0999C85.979 29.3583 82.0857 29.9651 79.7766 29.9651Z" fill="#177D3E"/>
<path d="M102.03 6.73926C94.9791 6.73926 89.9904 12.2113 89.9904 19.9924C89.9904 27.7736 94.9738 33.1221 102.03 33.1221C109.086 33.1221 114.069 27.65 114.069 19.9924C114.064 12.2113 109.199 6.73926 102.03 6.73926ZM102.03 30.4478C96.6814 30.4478 92.9117 26.0713 92.9117 19.9924C92.9117 13.7901 96.6814 9.53703 102.03 9.53703C107.378 9.53703 111.148 13.9136 111.148 19.9924C111.266 26.1948 107.497 30.4478 102.03 30.4478ZM68.1023 32.6388L58.4954 19.3856L67.2485 7.34607H63.9674L56.7931 17.1947L49.6188 7.34607H46.2142L55.0908 19.3856L45.3657 32.6388H48.7703L56.7931 21.6947L64.8159 32.6388H68.1023Z" fill="#177D3E"/>
<path d="M40.9785 20.304C40.9785 31.4897 31.7367 40.608 20.4275 40.608C9.11826 40.608 0 31.4951 0 20.304C0 9.11289 9.24177 0 20.551 0C31.8602 0 40.9785 9.11826 40.9785 20.304Z" fill="#666666"/>
<path d="M40.978 20.3074C40.978 31.4931 31.7362 40.6114 20.427 40.6114C9.11777 40.6114 -0.000488281 31.4931 -0.000488281 20.3074C-0.000488281 9.12168 9.24128 -0.00195312 20.5505 -0.00195312C31.8597 -0.00195312 40.978 9.12168 40.978 20.3074Z" fill="url(#paint0_radial_839_13722)"/>
<path d="M40.978 20.3074C40.978 31.4931 31.7362 40.6114 20.427 40.6114C9.11777 40.6114 -0.000488281 31.4931 -0.000488281 20.3074C-0.000488281 9.12168 9.24128 -0.00195312 20.5505 -0.00195312C31.8597 -0.00195312 40.978 9.12168 40.978 20.3074Z" fill="url(#paint1_radial_839_13722)"/>
<path d="M40.978 20.3074C40.978 31.4931 31.7362 40.6114 20.427 40.6114C9.11777 40.6114 -0.000488281 31.4931 -0.000488281 20.3074C-0.000488281 9.12168 9.24128 -0.00195312 20.5505 -0.00195312C31.8597 -0.00195312 40.978 9.12168 40.978 20.3074Z" fill="url(#paint2_radial_839_13722)"/>
<path d="M15.3421 11.4648C13.135 14.2626 3.58177 25.3409 4.44097 32.8858C5.05315 33.6161 5.66533 34.3464 6.40102 34.9532C6.27751 29.2342 13.1404 23.0265 18.4083 18.2794L15.3421 11.4648Z" fill="#00A54D"/>
<path d="M15.3421 11.4648C13.135 14.2626 3.58177 25.3409 4.44097 32.8858C5.05315 33.6161 5.66533 34.3464 6.40102 34.9532C6.27751 29.2342 13.1404 23.0265 18.4083 18.2794L15.3421 11.4648Z" fill="url(#paint3_linear_839_13722)"/>
<path d="M9.78424 3.10911C8.55988 3.83943 7.45366 4.68789 6.47632 5.54172C9.78424 6.14853 12.9686 9.06981 14.8052 11.3843C16.4001 13.8169 17.2539 16.0079 18.3601 18.3223C19.0958 17.7155 19.8315 17.1087 20.6907 16.373V6.39018C18.1131 4.93491 14.193 2.98559 9.78424 3.10911Z" fill="#02A74D"/>
<path d="M9.78424 3.10377C8.55988 3.83409 7.45903 4.68792 6.47632 5.53638C9.78424 6.14319 12.9686 9.06447 14.8052 11.3789C16.4001 13.8116 17.2539 16.0025 18.3601 18.317C19.0958 17.7102 19.8315 17.098 20.6853 16.3677V6.39021C18.1131 4.92957 14.193 2.98563 9.78424 3.10377Z" fill="url(#paint4_linear_839_13722)"/>
<path d="M25.7276 11.4707C27.924 14.2738 37.4504 25.3575 36.5912 32.9078C35.979 33.6381 35.3722 34.3684 34.6365 34.9806C34.76 29.2562 27.924 23.0431 22.6721 18.296L25.7276 11.4707Z" fill="#00A54D"/>
<path d="M25.7277 11.4707C27.924 14.2738 37.4504 25.3575 36.5965 32.9078C35.9844 33.6381 35.3775 34.3684 34.6418 34.9806C34.7654 29.2562 27.924 23.0431 22.6775 18.296L25.7277 11.4707Z" fill="url(#paint5_linear_839_13722)"/>
<path d="M31.2641 3.10422C32.4831 3.83454 33.584 4.68837 34.5613 5.5422C31.2641 6.14901 28.0905 9.07566 26.2593 11.3901C24.6752 13.8281 23.816 16.0191 22.7205 18.3335C21.9848 17.7214 21.2545 17.1146 20.4006 16.3842V6.39603C22.844 4.93002 26.8715 2.98071 31.2641 3.10422Z" fill="#02A74D"/>
<path d="M31.2695 3.10422C32.4885 3.83454 33.5894 4.68837 34.5667 5.5422C31.2695 6.14901 28.0905 9.07566 26.2593 11.3901C24.6698 13.8281 23.816 16.0191 22.7205 18.3335C21.9902 17.7267 21.2545 17.1146 20.4006 16.3842V6.39603C22.844 4.93002 26.8715 2.98071 31.2695 3.10422Z" fill="url(#paint6_linear_839_13722)"/>
</g>
<defs>
<radialGradient id="paint0_radial_839_13722" cx="0" cy="0" r="1" gradientUnits="userSpaceOnUse" gradientTransform="translate(20.1667 18.1488) rotate(90) scale(29.5496 26.2395)">
<stop stop-color="white"/>
<stop offset="1" stop-color="white" stop-opacity="0"/>
</radialGradient>
<radialGradient id="paint1_radial_839_13722" cx="0" cy="0" r="1" gradientUnits="userSpaceOnUse" gradientTransform="translate(20.1667 18.1488) rotate(90) scale(29.5496 26.2395)">
<stop stop-color="white"/>
<stop offset="1" stop-color="white" stop-opacity="0"/>
</radialGradient>
<radialGradient id="paint2_radial_839_13722" cx="0" cy="0" r="1" gradientUnits="userSpaceOnUse" gradientTransform="translate(20.1667 18.1488) rotate(90) scale(29.5496 26.2395)">
<stop stop-color="white"/>
<stop offset="1" stop-color="white" stop-opacity="0"/>
</radialGradient>
<linearGradient id="paint3_linear_839_13722" x1="13.1316" y1="25.932" x2="8.32401" y2="20.2164" gradientUnits="userSpaceOnUse">
<stop stop-color="#97CA43"/>
<stop offset="1" stop-color="#97CA43" stop-opacity="0"/>
</linearGradient>
<linearGradient id="paint4_linear_839_13722" x1="12.9196" y1="12.4031" x2="17.2945" y2="2.56361" gradientUnits="userSpaceOnUse">
<stop stop-color="#97CA43"/>
<stop offset="1" stop-color="#97CA43" stop-opacity="0"/>
</linearGradient>
<linearGradient id="paint5_linear_839_13722" x1="30.6542" y1="23.7762" x2="25.8315" y2="18.0902" gradientUnits="userSpaceOnUse">
<stop stop-color="#97CA43"/>
<stop offset="1" stop-color="#97CA43" stop-opacity="0"/>
</linearGradient>
<linearGradient id="paint6_linear_839_13722" x1="24.9948" y1="9.9967" x2="28.7624" y2="3.8272" gradientUnits="userSpaceOnUse">
<stop stop-color="#97CA43"/>
<stop offset="1" stop-color="#97CA43" stop-opacity="0"/>
</linearGradient>
<clipPath id="clip0_839_13722">
<rect width="134.25" height="40.6133" fill="white"/>
</clipPath>
</defs>
</svg>
